# xmcd CD database file
#
# Track frame offsets:
#	150
#	13985
#	32515
#	55685
#	73795
#	88047
#	103402
#	120267
#	132255
#	145590
#	157572
#	177570
#	187555
#	195347
#
# Disc length: 2797 seconds
#
# Revision: 0
# Processed by: cddbd v1.5PL3 Copyright (c) Steve Scherf et al.
# Submitted via: CDex 1.51
#
DISCID=ad0aeb0e
DTITLE=Holly Cole - Baby , It's Cold Outside
DYEAR=2001
DGENRE=Jazz
TTITLE0=Chrustmus Time Is Here
TTITLE1=Baby , It's Cold Outside
TTITLE2=The Christmus Song
TTITLE3=Santa Baby
TTITLE4=I'll Be Home For Christmus
TTITLE5='Zat You Santa Claus
TTITLE6=If We Make It Though December
TTITLE7=Christmus Is
TTITLE8=Wildwood Carol
TTITLE9=Sleigh Ride
TTITLE10=What Is This Lovery Fregrance?
TTITLE11=Never About Me
TTITLE12=What About Me
TTITLE13=Miracle
EXTD=YEAR: 2001
EXTT0=
EXTT1=
EXTT2=
EXTT3=
EXTT4=
EXTT5=
EXTT6=
EXTT7=
EXTT8=
EXTT9=
EXTT10=
EXTT11=
EXTT12=
EXTT13=
PLAYORDER=
